<mxfile host="app.diagrams.net" modified="2023-05-12T08:36:13.683Z" agent="Mozilla/5.0 (Windows NT 10.0; Win64; x64) AppleWebKit/537.36 (KHTML, like Gecko) Chrome/113.0.0.0 Safari/537.36" etag="F-YWaYeULl_iY0oYxMQi" version="21.2.9" type="github">
  <diagram name="Trang-1" id="Th6KJ68GtFguBg0B3i6J">
    <mxGraphModel dx="880" dy="452" grid="1" gridSize="10" guides="1" tooltips="1" connect="1" arrows="1" fold="1" page="1" pageScale="1" pageWidth="827" pageHeight="1169" math="0" shadow="0">
      <root>
        <mxCell id="0" />
        <mxCell id="1" parent="0" />
        <mxCell id="xVmlR_FFQaEy1k-Qjlgz-2" value="Admin&lt;br&gt;" style="shape=umlActor;verticalLabelPosition=bottom;verticalAlign=top;html=1;outlineConnect=0;" vertex="1" parent="1">
          <mxGeometry x="50" y="330" width="30" height="60" as="geometry" />
        </mxCell>
        <mxCell id="xVmlR_FFQaEy1k-Qjlgz-3" value="Quản lý&amp;nbsp;trạm&lt;br/&gt;Mù Cang Chải" style="ellipse;whiteSpace=wrap;html=1;" vertex="1" parent="1">
          <mxGeometry x="220" y="150" width="120" height="80" as="geometry" />
        </mxCell>
        <mxCell id="xVmlR_FFQaEy1k-Qjlgz-4" value="Quản lý&amp;nbsp;trạm&lt;br/&gt;Khau Phạ" style="ellipse;whiteSpace=wrap;html=1;" vertex="1" parent="1">
          <mxGeometry x="220" y="310" width="120" height="80" as="geometry" />
        </mxCell>
        <mxCell id="xVmlR_FFQaEy1k-Qjlgz-5" value="Quản lý&amp;nbsp;trạm Chế&lt;br/&gt;Tạo" style="ellipse;whiteSpace=wrap;html=1;" vertex="1" parent="1">
          <mxGeometry x="220" y="470" width="120" height="80" as="geometry" />
        </mxCell>
        <mxCell id="xVmlR_FFQaEy1k-Qjlgz-9" value="Đăng nhập" style="ellipse;whiteSpace=wrap;html=1;" vertex="1" parent="1">
          <mxGeometry x="570" y="310" width="120" height="80" as="geometry" />
        </mxCell>
        <mxCell id="xVmlR_FFQaEy1k-Qjlgz-10" value="" style="endArrow=classic;html=1;rounded=0;exitX=1;exitY=0.3333333333333333;exitDx=0;exitDy=0;exitPerimeter=0;entryX=0;entryY=0.5;entryDx=0;entryDy=0;" edge="1" parent="1" source="xVmlR_FFQaEy1k-Qjlgz-2" target="xVmlR_FFQaEy1k-Qjlgz-3">
          <mxGeometry width="50" height="50" relative="1" as="geometry">
            <mxPoint x="390" y="350" as="sourcePoint" />
            <mxPoint x="440" y="300" as="targetPoint" />
          </mxGeometry>
        </mxCell>
        <mxCell id="xVmlR_FFQaEy1k-Qjlgz-11" value="" style="endArrow=classic;html=1;rounded=0;exitX=1;exitY=0.3333333333333333;exitDx=0;exitDy=0;exitPerimeter=0;entryX=0;entryY=0.5;entryDx=0;entryDy=0;" edge="1" parent="1" source="xVmlR_FFQaEy1k-Qjlgz-2" target="xVmlR_FFQaEy1k-Qjlgz-4">
          <mxGeometry width="50" height="50" relative="1" as="geometry">
            <mxPoint x="90" y="360" as="sourcePoint" />
            <mxPoint x="260" y="100" as="targetPoint" />
          </mxGeometry>
        </mxCell>
        <mxCell id="xVmlR_FFQaEy1k-Qjlgz-12" value="" style="endArrow=classic;html=1;rounded=0;entryX=0;entryY=0.5;entryDx=0;entryDy=0;" edge="1" parent="1" target="xVmlR_FFQaEy1k-Qjlgz-5">
          <mxGeometry width="50" height="50" relative="1" as="geometry">
            <mxPoint x="80" y="350" as="sourcePoint" />
            <mxPoint x="230" y="160" as="targetPoint" />
          </mxGeometry>
        </mxCell>
        <mxCell id="xVmlR_FFQaEy1k-Qjlgz-15" value="&amp;lt;&amp;lt;include&amp;gt;&amp;gt;" style="html=1;verticalAlign=bottom;labelBackgroundColor=none;endArrow=open;endFill=0;dashed=1;rounded=0;exitX=1;exitY=0.5;exitDx=0;exitDy=0;entryX=0;entryY=0.5;entryDx=0;entryDy=0;" edge="1" parent="1" source="xVmlR_FFQaEy1k-Qjlgz-3" target="xVmlR_FFQaEy1k-Qjlgz-9">
          <mxGeometry width="160" relative="1" as="geometry">
            <mxPoint x="330" y="270" as="sourcePoint" />
            <mxPoint x="490" y="270" as="targetPoint" />
          </mxGeometry>
        </mxCell>
        <mxCell id="xVmlR_FFQaEy1k-Qjlgz-16" value="&amp;lt;&amp;lt;include&amp;gt;&amp;gt;" style="html=1;verticalAlign=bottom;labelBackgroundColor=none;endArrow=open;endFill=0;dashed=1;rounded=0;exitX=1;exitY=0.5;exitDx=0;exitDy=0;" edge="1" parent="1" source="xVmlR_FFQaEy1k-Qjlgz-4">
          <mxGeometry width="160" relative="1" as="geometry">
            <mxPoint x="350" y="60" as="sourcePoint" />
            <mxPoint x="570" y="350" as="targetPoint" />
          </mxGeometry>
        </mxCell>
        <mxCell id="xVmlR_FFQaEy1k-Qjlgz-17" value="&amp;lt;&amp;lt;include&amp;gt;&amp;gt;" style="html=1;verticalAlign=bottom;labelBackgroundColor=none;endArrow=open;endFill=0;dashed=1;rounded=0;exitX=1;exitY=0.5;exitDx=0;exitDy=0;entryX=0;entryY=0.5;entryDx=0;entryDy=0;" edge="1" parent="1" source="xVmlR_FFQaEy1k-Qjlgz-5" target="xVmlR_FFQaEy1k-Qjlgz-9">
          <mxGeometry width="160" relative="1" as="geometry">
            <mxPoint x="360" y="70" as="sourcePoint" />
            <mxPoint x="590" y="370" as="targetPoint" />
          </mxGeometry>
        </mxCell>
        <mxCell id="xVmlR_FFQaEy1k-Qjlgz-21" value="Admin&lt;br&gt;" style="shape=umlActor;verticalLabelPosition=bottom;verticalAlign=top;html=1;outlineConnect=0;" vertex="1" parent="1">
          <mxGeometry x="30" y="690" width="30" height="60" as="geometry" />
        </mxCell>
        <mxCell id="xVmlR_FFQaEy1k-Qjlgz-23" value="Thêm" style="ellipse;whiteSpace=wrap;html=1;" vertex="1" parent="1">
          <mxGeometry x="330" y="570" width="120" height="80" as="geometry" />
        </mxCell>
        <mxCell id="xVmlR_FFQaEy1k-Qjlgz-24" value="Sửa" style="ellipse;whiteSpace=wrap;html=1;" vertex="1" parent="1">
          <mxGeometry x="330" y="670" width="120" height="80" as="geometry" />
        </mxCell>
        <mxCell id="xVmlR_FFQaEy1k-Qjlgz-25" value="Xóa" style="ellipse;whiteSpace=wrap;html=1;" vertex="1" parent="1">
          <mxGeometry x="330" y="780" width="120" height="80" as="geometry" />
        </mxCell>
        <mxCell id="xVmlR_FFQaEy1k-Qjlgz-26" value="Đăng nhập" style="ellipse;whiteSpace=wrap;html=1;" vertex="1" parent="1">
          <mxGeometry x="540" y="670" width="120" height="80" as="geometry" />
        </mxCell>
        <mxCell id="xVmlR_FFQaEy1k-Qjlgz-27" value="&amp;lt;&amp;lt;include&amp;gt;&amp;gt;" style="html=1;verticalAlign=bottom;labelBackgroundColor=none;endArrow=open;endFill=0;dashed=1;rounded=0;exitX=1;exitY=0.5;exitDx=0;exitDy=0;entryX=0;entryY=0.5;entryDx=0;entryDy=0;" edge="1" parent="1" source="xVmlR_FFQaEy1k-Qjlgz-23" target="xVmlR_FFQaEy1k-Qjlgz-26">
          <mxGeometry width="160" relative="1" as="geometry">
            <mxPoint x="330" y="670" as="sourcePoint" />
            <mxPoint x="490" y="670" as="targetPoint" />
          </mxGeometry>
        </mxCell>
        <mxCell id="xVmlR_FFQaEy1k-Qjlgz-28" value="&amp;lt;&amp;lt;include&amp;gt;&amp;gt;" style="html=1;verticalAlign=bottom;labelBackgroundColor=none;endArrow=open;endFill=0;dashed=1;rounded=0;exitX=1;exitY=0.5;exitDx=0;exitDy=0;" edge="1" parent="1" source="xVmlR_FFQaEy1k-Qjlgz-24">
          <mxGeometry width="160" relative="1" as="geometry">
            <mxPoint x="460" y="620" as="sourcePoint" />
            <mxPoint x="540" y="710" as="targetPoint" />
          </mxGeometry>
        </mxCell>
        <mxCell id="xVmlR_FFQaEy1k-Qjlgz-29" value="&amp;lt;&amp;lt;include&amp;gt;&amp;gt;" style="html=1;verticalAlign=bottom;labelBackgroundColor=none;endArrow=open;endFill=0;dashed=1;rounded=0;exitX=1;exitY=0.5;exitDx=0;exitDy=0;" edge="1" parent="1" source="xVmlR_FFQaEy1k-Qjlgz-25">
          <mxGeometry width="160" relative="1" as="geometry">
            <mxPoint x="470" y="630" as="sourcePoint" />
            <mxPoint x="540" y="710" as="targetPoint" />
          </mxGeometry>
        </mxCell>
        <mxCell id="xVmlR_FFQaEy1k-Qjlgz-30" value="&amp;lt;&amp;lt;extend&amp;gt;&amp;gt;" style="html=1;verticalAlign=bottom;labelBackgroundColor=none;endArrow=open;endFill=0;dashed=1;rounded=0;entryX=1;entryY=0.5;entryDx=0;entryDy=0;exitX=0;exitY=0.5;exitDx=0;exitDy=0;" edge="1" parent="1" source="xVmlR_FFQaEy1k-Qjlgz-23">
          <mxGeometry width="160" relative="1" as="geometry">
            <mxPoint x="330" y="670" as="sourcePoint" />
            <mxPoint x="260" y="710" as="targetPoint" />
          </mxGeometry>
        </mxCell>
        <mxCell id="xVmlR_FFQaEy1k-Qjlgz-31" value="&amp;lt;&amp;lt;extend&amp;gt;&amp;gt;" style="html=1;verticalAlign=bottom;labelBackgroundColor=none;endArrow=open;endFill=0;dashed=1;rounded=0;exitX=0;exitY=0.5;exitDx=0;exitDy=0;" edge="1" parent="1" source="xVmlR_FFQaEy1k-Qjlgz-24">
          <mxGeometry width="160" relative="1" as="geometry">
            <mxPoint x="340" y="620" as="sourcePoint" />
            <mxPoint x="260" y="710" as="targetPoint" />
          </mxGeometry>
        </mxCell>
        <mxCell id="xVmlR_FFQaEy1k-Qjlgz-32" value="&amp;lt;&amp;lt;extend&amp;gt;&amp;gt;" style="html=1;verticalAlign=bottom;labelBackgroundColor=none;endArrow=open;endFill=0;dashed=1;rounded=0;entryX=1;entryY=0.5;entryDx=0;entryDy=0;exitX=0;exitY=0.5;exitDx=0;exitDy=0;" edge="1" parent="1" source="xVmlR_FFQaEy1k-Qjlgz-25">
          <mxGeometry width="160" relative="1" as="geometry">
            <mxPoint x="350" y="630" as="sourcePoint" />
            <mxPoint x="260" y="710" as="targetPoint" />
          </mxGeometry>
        </mxCell>
        <mxCell id="xVmlR_FFQaEy1k-Qjlgz-33" value="" style="endArrow=classic;html=1;rounded=0;exitX=1;exitY=0.3333333333333333;exitDx=0;exitDy=0;exitPerimeter=0;entryX=0;entryY=0.5;entryDx=0;entryDy=0;" edge="1" parent="1" source="xVmlR_FFQaEy1k-Qjlgz-21">
          <mxGeometry width="50" height="50" relative="1" as="geometry">
            <mxPoint x="390" y="690" as="sourcePoint" />
            <mxPoint x="140" y="710" as="targetPoint" />
          </mxGeometry>
        </mxCell>
        <mxCell id="xVmlR_FFQaEy1k-Qjlgz-34" value="Quản lý&amp;nbsp;trạm&lt;br/&gt;Mù Cang Chải" style="ellipse;whiteSpace=wrap;html=1;" vertex="1" parent="1">
          <mxGeometry x="140" y="670" width="120" height="80" as="geometry" />
        </mxCell>
        <mxCell id="xVmlR_FFQaEy1k-Qjlgz-35" value="Admin&lt;br&gt;" style="shape=umlActor;verticalLabelPosition=bottom;verticalAlign=top;html=1;outlineConnect=0;" vertex="1" parent="1">
          <mxGeometry x="30" y="1020" width="30" height="60" as="geometry" />
        </mxCell>
        <mxCell id="xVmlR_FFQaEy1k-Qjlgz-36" value="Thêm" style="ellipse;whiteSpace=wrap;html=1;" vertex="1" parent="1">
          <mxGeometry x="330" y="900" width="120" height="80" as="geometry" />
        </mxCell>
        <mxCell id="xVmlR_FFQaEy1k-Qjlgz-37" value="Sửa" style="ellipse;whiteSpace=wrap;html=1;" vertex="1" parent="1">
          <mxGeometry x="330" y="1000" width="120" height="80" as="geometry" />
        </mxCell>
        <mxCell id="xVmlR_FFQaEy1k-Qjlgz-38" value="Xóa" style="ellipse;whiteSpace=wrap;html=1;" vertex="1" parent="1">
          <mxGeometry x="330" y="1110" width="120" height="80" as="geometry" />
        </mxCell>
        <mxCell id="xVmlR_FFQaEy1k-Qjlgz-39" value="Đăng nhập" style="ellipse;whiteSpace=wrap;html=1;" vertex="1" parent="1">
          <mxGeometry x="540" y="1000" width="120" height="80" as="geometry" />
        </mxCell>
        <mxCell id="xVmlR_FFQaEy1k-Qjlgz-40" value="&amp;lt;&amp;lt;include&amp;gt;&amp;gt;" style="html=1;verticalAlign=bottom;labelBackgroundColor=none;endArrow=open;endFill=0;dashed=1;rounded=0;exitX=1;exitY=0.5;exitDx=0;exitDy=0;entryX=0;entryY=0.5;entryDx=0;entryDy=0;" edge="1" parent="1" source="xVmlR_FFQaEy1k-Qjlgz-36" target="xVmlR_FFQaEy1k-Qjlgz-39">
          <mxGeometry width="160" relative="1" as="geometry">
            <mxPoint x="330" y="1000" as="sourcePoint" />
            <mxPoint x="490" y="1000" as="targetPoint" />
          </mxGeometry>
        </mxCell>
        <mxCell id="xVmlR_FFQaEy1k-Qjlgz-41" value="&amp;lt;&amp;lt;include&amp;gt;&amp;gt;" style="html=1;verticalAlign=bottom;labelBackgroundColor=none;endArrow=open;endFill=0;dashed=1;rounded=0;exitX=1;exitY=0.5;exitDx=0;exitDy=0;" edge="1" parent="1" source="xVmlR_FFQaEy1k-Qjlgz-37">
          <mxGeometry width="160" relative="1" as="geometry">
            <mxPoint x="460" y="950" as="sourcePoint" />
            <mxPoint x="540" y="1040" as="targetPoint" />
          </mxGeometry>
        </mxCell>
        <mxCell id="xVmlR_FFQaEy1k-Qjlgz-42" value="&amp;lt;&amp;lt;include&amp;gt;&amp;gt;" style="html=1;verticalAlign=bottom;labelBackgroundColor=none;endArrow=open;endFill=0;dashed=1;rounded=0;exitX=1;exitY=0.5;exitDx=0;exitDy=0;" edge="1" parent="1" source="xVmlR_FFQaEy1k-Qjlgz-38">
          <mxGeometry width="160" relative="1" as="geometry">
            <mxPoint x="470" y="960" as="sourcePoint" />
            <mxPoint x="540" y="1040" as="targetPoint" />
          </mxGeometry>
        </mxCell>
        <mxCell id="xVmlR_FFQaEy1k-Qjlgz-43" value="&amp;lt;&amp;lt;extend&amp;gt;&amp;gt;" style="html=1;verticalAlign=bottom;labelBackgroundColor=none;endArrow=open;endFill=0;dashed=1;rounded=0;entryX=1;entryY=0.5;entryDx=0;entryDy=0;exitX=0;exitY=0.5;exitDx=0;exitDy=0;" edge="1" parent="1" source="xVmlR_FFQaEy1k-Qjlgz-36">
          <mxGeometry width="160" relative="1" as="geometry">
            <mxPoint x="330" y="1000" as="sourcePoint" />
            <mxPoint x="260" y="1040" as="targetPoint" />
          </mxGeometry>
        </mxCell>
        <mxCell id="xVmlR_FFQaEy1k-Qjlgz-44" value="&amp;lt;&amp;lt;extend&amp;gt;&amp;gt;" style="html=1;verticalAlign=bottom;labelBackgroundColor=none;endArrow=open;endFill=0;dashed=1;rounded=0;exitX=0;exitY=0.5;exitDx=0;exitDy=0;" edge="1" parent="1" source="xVmlR_FFQaEy1k-Qjlgz-37">
          <mxGeometry width="160" relative="1" as="geometry">
            <mxPoint x="340" y="950" as="sourcePoint" />
            <mxPoint x="260" y="1040" as="targetPoint" />
          </mxGeometry>
        </mxCell>
        <mxCell id="xVmlR_FFQaEy1k-Qjlgz-45" value="&amp;lt;&amp;lt;extend&amp;gt;&amp;gt;" style="html=1;verticalAlign=bottom;labelBackgroundColor=none;endArrow=open;endFill=0;dashed=1;rounded=0;entryX=1;entryY=0.5;entryDx=0;entryDy=0;exitX=0;exitY=0.5;exitDx=0;exitDy=0;" edge="1" parent="1" source="xVmlR_FFQaEy1k-Qjlgz-38">
          <mxGeometry width="160" relative="1" as="geometry">
            <mxPoint x="350" y="960" as="sourcePoint" />
            <mxPoint x="260" y="1040" as="targetPoint" />
          </mxGeometry>
        </mxCell>
        <mxCell id="xVmlR_FFQaEy1k-Qjlgz-46" value="" style="endArrow=classic;html=1;rounded=0;exitX=1;exitY=0.3333333333333333;exitDx=0;exitDy=0;exitPerimeter=0;entryX=0;entryY=0.5;entryDx=0;entryDy=0;" edge="1" parent="1" source="xVmlR_FFQaEy1k-Qjlgz-35">
          <mxGeometry width="50" height="50" relative="1" as="geometry">
            <mxPoint x="390" y="1020" as="sourcePoint" />
            <mxPoint x="140" y="1040" as="targetPoint" />
          </mxGeometry>
        </mxCell>
        <mxCell id="xVmlR_FFQaEy1k-Qjlgz-48" value="Quản lý&amp;nbsp;trạm&lt;br/&gt;Khau Phạ" style="ellipse;whiteSpace=wrap;html=1;" vertex="1" parent="1">
          <mxGeometry x="140" y="1000" width="120" height="80" as="geometry" />
        </mxCell>
        <mxCell id="xVmlR_FFQaEy1k-Qjlgz-49" value="Admin&lt;br&gt;" style="shape=umlActor;verticalLabelPosition=bottom;verticalAlign=top;html=1;outlineConnect=0;" vertex="1" parent="1">
          <mxGeometry x="30" y="1340" width="30" height="60" as="geometry" />
        </mxCell>
        <mxCell id="xVmlR_FFQaEy1k-Qjlgz-50" value="Thêm" style="ellipse;whiteSpace=wrap;html=1;" vertex="1" parent="1">
          <mxGeometry x="330" y="1220" width="120" height="80" as="geometry" />
        </mxCell>
        <mxCell id="xVmlR_FFQaEy1k-Qjlgz-51" value="Sửa" style="ellipse;whiteSpace=wrap;html=1;" vertex="1" parent="1">
          <mxGeometry x="330" y="1320" width="120" height="80" as="geometry" />
        </mxCell>
        <mxCell id="xVmlR_FFQaEy1k-Qjlgz-52" value="Xóa" style="ellipse;whiteSpace=wrap;html=1;" vertex="1" parent="1">
          <mxGeometry x="330" y="1430" width="120" height="80" as="geometry" />
        </mxCell>
        <mxCell id="xVmlR_FFQaEy1k-Qjlgz-53" value="Đăng nhập" style="ellipse;whiteSpace=wrap;html=1;" vertex="1" parent="1">
          <mxGeometry x="540" y="1320" width="120" height="80" as="geometry" />
        </mxCell>
        <mxCell id="xVmlR_FFQaEy1k-Qjlgz-54" value="&amp;lt;&amp;lt;include&amp;gt;&amp;gt;" style="html=1;verticalAlign=bottom;labelBackgroundColor=none;endArrow=open;endFill=0;dashed=1;rounded=0;exitX=1;exitY=0.5;exitDx=0;exitDy=0;entryX=0;entryY=0.5;entryDx=0;entryDy=0;" edge="1" parent="1" source="xVmlR_FFQaEy1k-Qjlgz-50" target="xVmlR_FFQaEy1k-Qjlgz-53">
          <mxGeometry width="160" relative="1" as="geometry">
            <mxPoint x="330" y="1320" as="sourcePoint" />
            <mxPoint x="490" y="1320" as="targetPoint" />
          </mxGeometry>
        </mxCell>
        <mxCell id="xVmlR_FFQaEy1k-Qjlgz-55" value="&amp;lt;&amp;lt;include&amp;gt;&amp;gt;" style="html=1;verticalAlign=bottom;labelBackgroundColor=none;endArrow=open;endFill=0;dashed=1;rounded=0;exitX=1;exitY=0.5;exitDx=0;exitDy=0;" edge="1" parent="1" source="xVmlR_FFQaEy1k-Qjlgz-51">
          <mxGeometry width="160" relative="1" as="geometry">
            <mxPoint x="460" y="1270" as="sourcePoint" />
            <mxPoint x="540" y="1360" as="targetPoint" />
          </mxGeometry>
        </mxCell>
        <mxCell id="xVmlR_FFQaEy1k-Qjlgz-56" value="&amp;lt;&amp;lt;include&amp;gt;&amp;gt;" style="html=1;verticalAlign=bottom;labelBackgroundColor=none;endArrow=open;endFill=0;dashed=1;rounded=0;exitX=1;exitY=0.5;exitDx=0;exitDy=0;" edge="1" parent="1" source="xVmlR_FFQaEy1k-Qjlgz-52">
          <mxGeometry width="160" relative="1" as="geometry">
            <mxPoint x="470" y="1280" as="sourcePoint" />
            <mxPoint x="540" y="1360" as="targetPoint" />
          </mxGeometry>
        </mxCell>
        <mxCell id="xVmlR_FFQaEy1k-Qjlgz-57" value="&amp;lt;&amp;lt;extend&amp;gt;&amp;gt;" style="html=1;verticalAlign=bottom;labelBackgroundColor=none;endArrow=open;endFill=0;dashed=1;rounded=0;entryX=1;entryY=0.5;entryDx=0;entryDy=0;exitX=0;exitY=0.5;exitDx=0;exitDy=0;" edge="1" parent="1" source="xVmlR_FFQaEy1k-Qjlgz-50">
          <mxGeometry width="160" relative="1" as="geometry">
            <mxPoint x="330" y="1320" as="sourcePoint" />
            <mxPoint x="260" y="1360" as="targetPoint" />
          </mxGeometry>
        </mxCell>
        <mxCell id="xVmlR_FFQaEy1k-Qjlgz-58" value="&amp;lt;&amp;lt;extend&amp;gt;&amp;gt;" style="html=1;verticalAlign=bottom;labelBackgroundColor=none;endArrow=open;endFill=0;dashed=1;rounded=0;exitX=0;exitY=0.5;exitDx=0;exitDy=0;" edge="1" parent="1" source="xVmlR_FFQaEy1k-Qjlgz-51">
          <mxGeometry width="160" relative="1" as="geometry">
            <mxPoint x="340" y="1270" as="sourcePoint" />
            <mxPoint x="260" y="1360" as="targetPoint" />
          </mxGeometry>
        </mxCell>
        <mxCell id="xVmlR_FFQaEy1k-Qjlgz-59" value="&amp;lt;&amp;lt;extend&amp;gt;&amp;gt;" style="html=1;verticalAlign=bottom;labelBackgroundColor=none;endArrow=open;endFill=0;dashed=1;rounded=0;entryX=1;entryY=0.5;entryDx=0;entryDy=0;exitX=0;exitY=0.5;exitDx=0;exitDy=0;" edge="1" parent="1" source="xVmlR_FFQaEy1k-Qjlgz-52">
          <mxGeometry width="160" relative="1" as="geometry">
            <mxPoint x="350" y="1280" as="sourcePoint" />
            <mxPoint x="260" y="1360" as="targetPoint" />
          </mxGeometry>
        </mxCell>
        <mxCell id="xVmlR_FFQaEy1k-Qjlgz-60" value="" style="endArrow=classic;html=1;rounded=0;exitX=1;exitY=0.3333333333333333;exitDx=0;exitDy=0;exitPerimeter=0;entryX=0;entryY=0.5;entryDx=0;entryDy=0;" edge="1" parent="1" source="xVmlR_FFQaEy1k-Qjlgz-49">
          <mxGeometry width="50" height="50" relative="1" as="geometry">
            <mxPoint x="390" y="1340" as="sourcePoint" />
            <mxPoint x="140" y="1360" as="targetPoint" />
          </mxGeometry>
        </mxCell>
        <mxCell id="xVmlR_FFQaEy1k-Qjlgz-62" value="Quản lý&amp;nbsp;trạm Chế&lt;br/&gt;Tạo" style="ellipse;whiteSpace=wrap;html=1;" vertex="1" parent="1">
          <mxGeometry x="140" y="1320" width="120" height="80" as="geometry" />
        </mxCell>
      </root>
    </mxGraphModel>
  </diagram>
</mxfile>
